<svg width="283" height="52" viewBox="0 0 283 52" fill="none" xmlns="http://www.w3.org/2000/svg">
<path d="M42.3904 19.9336C45.2331 19.9336 47.8679 21.3862 49.6401 23.7572C50.6788 25.2734 51.19 27.0649 51.19 29.2905V30.1463H37.8073C37.9998 32.5173 39.772 34.0345 42.5021 33.9372C44.1954 33.9372 45.6808 33.2278 46.4788 31.856H50.6788C49.2734 35.5343 46.3354 37.6155 42.6301 37.6155C40.1388 37.6155 38.0787 36.7607 36.3546 35.0183C34.7894 33.3568 33.8633 31.0493 33.8633 28.8236C33.8633 26.468 34.6613 24.3868 36.2102 22.7253C37.9035 20.9338 40.107 19.9336 42.3904 19.9336ZM42.2624 23.532C40.2822 23.532 38.4147 24.9028 37.8554 26.984H46.9736C46.3508 24.7574 44.722 23.532 42.2624 23.532Z" fill="white"/>
<path d="M57.0823 15.0283V21.788C58.584 20.5616 60.2292 20.0774 62.2565 20.1265C64.461 20.1265 66.4729 20.836 68.0218 22.3521C69.8904 24.0137 70.8799 26.4665 70.8799 28.9184C70.8799 31.5811 69.7623 34.0811 67.7494 35.8235C66.2486 37.0499 64.4129 37.7593 62.2729 37.7593C60.3091 37.7593 58.6322 37.1943 57.0823 35.9688V37.3396H53.25V15.0283H57.0823ZM62.0014 23.9338C59.2868 23.9338 57.2267 26.0949 57.2267 28.9829C57.2267 31.7255 59.3821 33.8866 61.7935 33.8712C64.796 33.8712 66.8561 31.6927 66.8561 28.902C66.8561 26.2403 64.7161 23.9338 62.0014 23.9338Z" fill="white"/>
<path d="M77.2443 37.3396H73.5391V20.5135H77.2443V37.3396ZM77.2443 18.7701H73.5391V15.0283H77.2443V18.7701Z" fill="white"/>
<path d="M88.364 20.0791C90.7909 20.0791 92.516 20.8704 93.65 22.5319V20.5142H97.3552V37.3413H93.6336V35.261C92.7075 37.0025 91.0152 37.7119 88.4439 37.7119C83.5412 37.7119 79.8359 33.921 79.8359 28.8719C79.8359 26.5 80.6349 24.3379 82.1838 22.6763C83.8762 20.8858 85.8727 20.0791 88.364 20.0791ZM88.5229 23.87C85.8881 23.871 83.7482 25.9513 83.7482 28.6939C83.7482 31.6627 85.9517 33.7429 88.5864 33.7429C91.0142 33.7429 93.2187 31.5173 93.2187 28.9201C93.2187 26.0321 90.9497 23.87 88.5229 23.87Z" fill="white"/>
<path d="M0.143047 44.5387H10.2538L21.1918 33.5395L32.0966 44.5387H42.3354L26.3102 28.3759L42.4778 12.085H32.2401L21.1918 23.2449L10.2062 12.085H0L16.0724 28.3759L0.143047 44.5387Z" fill="white"/>
<path d="M113.687 0.317068C113.687 0.141953 113.428 0 113.109 0C112.79 0 112.531 0.141953 112.531 0.317068V51.6829C112.531 51.858 112.79 52 113.109 52C113.428 52 113.687 51.858 113.687 51.6829V0.317068Z" fill="#D9D9D9" fill-opacity="0.4"/>
<path d="M272.849 20.5076L274.496 13.6689H276.698L278.364 20.5076L279.778 13.6689H282.087L279.526 23.3012H277.504L275.606 16.1747L273.708 23.3012H271.685L269.125 13.6689H271.434L272.849 20.5076Z" fill="white"/>
<path d="M263.976 21.7964C265.39 21.7964 266.465 20.7231 266.465 18.5022C266.465 16.2824 265.39 15.1907 263.976 15.1907C262.561 15.1907 261.487 16.2824 261.487 18.5022C261.487 20.7231 262.561 21.7964 263.976 21.7964ZM263.976 13.4541C266.392 13.4541 268.666 15.029 268.666 18.5022C268.666 21.9755 266.392 23.533 263.976 23.533C261.559 23.533 259.285 21.9755 259.285 18.5022C259.285 15.029 261.559 13.4541 263.976 13.4541Z" fill="white"/>
<path d="M258.967 13.687V15.8356C258.609 15.8 258.269 15.7817 257.946 15.7817C256.604 15.7817 255.834 16.3189 255.834 18.2528V23.3019H253.703V13.6697H255.798V15.388C256.318 14.3137 257.249 13.6697 258.412 13.6514C258.573 13.6514 258.806 13.6696 258.967 13.687Z" fill="white"/>
<path d="M252.536 13.687V15.8356C252.178 15.8 251.838 15.7817 251.516 15.7817C250.173 15.7817 249.404 16.3189 249.404 18.2528V23.3019H247.273V13.6697H249.368V15.388C249.887 14.3137 250.818 13.6697 251.982 13.6514C252.143 13.6514 252.375 13.6696 252.536 13.687Z" fill="white"/>
<path d="M241.01 21.7964C242.425 21.7964 243.5 20.7231 243.5 18.5022C243.5 16.2824 242.425 15.1907 241.01 15.1907C239.596 15.1907 238.522 16.2824 238.522 18.5022C238.522 20.7231 239.596 21.7964 241.01 21.7964ZM241.01 13.4541C243.428 13.4541 245.701 15.029 245.701 18.5022C245.701 21.9755 243.428 23.533 241.01 23.533C238.594 23.533 236.32 21.9755 236.32 18.5022C236.32 15.029 238.594 13.4541 241.01 13.4541Z" fill="white"/>
<path d="M223.026 18.1807V23.301H220.895V13.6688H223.026V15.0117C223.58 14.0086 224.529 13.4541 225.818 13.4541C227.305 13.4541 228.182 14.0808 228.629 15.1541C229.452 13.9374 230.581 13.4541 231.763 13.4541C234.037 13.4541 234.914 14.9578 234.914 17.2489V23.301H232.783V17.7687C232.783 16.4614 232.657 15.1907 231.082 15.1907C229.506 15.1907 228.969 16.4441 228.969 18.1807V23.301H226.839V17.7687C226.839 16.4614 226.714 15.1907 225.138 15.1907C223.563 15.1907 223.026 16.4441 223.026 18.1807Z" fill="white"/>
<path d="M214.621 21.7964C216.035 21.7964 217.109 20.7231 217.109 18.5022C217.109 16.2824 216.035 15.1907 214.621 15.1907C213.207 15.1907 212.132 16.2824 212.132 18.5022C212.132 20.7231 213.207 21.7964 214.621 21.7964ZM214.621 13.4541C217.038 13.4541 219.312 15.029 219.312 18.5022C219.312 21.9755 217.038 23.533 214.621 23.533C212.203 23.533 209.93 21.9755 209.93 18.5022C209.93 15.029 212.203 13.4541 214.621 13.4541Z" fill="white"/>
<path d="M204.821 23.3016V12.2187H200.738V10.3213H211.176V12.2187H207.095V23.3016H204.821Z" fill="white"/>
<path d="M193.567 14.9578V13.6688H195.697V22.3336C195.697 25.4853 194.104 26.7743 191.114 26.7743C189.001 26.7743 187.318 25.9329 186.996 23.8199H189.109C189.305 24.7152 189.896 25.0916 191.167 25.0916C193.065 25.0916 193.567 24.0173 193.567 22.7639V21.6357C192.994 22.5848 191.991 23.1393 190.702 23.1393C188.357 23.1393 186.566 21.2958 186.566 18.2876C186.566 15.2802 188.357 13.4541 190.702 13.4541C191.991 13.4541 192.994 14.0086 193.567 14.9578ZM193.656 18.2876C193.656 16.1389 192.564 15.1541 191.167 15.1541C189.682 15.1541 188.786 16.3546 188.786 18.2876C188.786 20.2571 189.682 21.4566 191.167 21.4566C192.564 21.4566 193.656 20.4545 193.656 18.2876Z" fill="white"/>
<path d="M178.995 13.6688V15.0117C179.549 14.0086 180.569 13.4541 181.912 13.4541C184.24 13.4541 185.189 14.9578 185.189 17.2489V23.301H183.058V17.7687C183.058 16.4614 182.862 15.1907 181.232 15.1907C179.603 15.1907 178.995 16.4441 178.995 18.1807V23.301H176.863V13.6688H178.995Z" fill="white"/>
<path d="M172.527 10.3213H174.658V12.4699H172.527V10.3213ZM172.527 13.6694H174.658V23.3016H172.527V13.6694Z" fill="white"/>
<path d="M163.873 18.4849C163.873 20.7048 164.964 21.7964 166.361 21.7964C167.848 21.7964 168.743 20.5257 168.743 18.4849C168.743 16.4614 167.848 15.1907 166.361 15.1907C164.964 15.1907 163.873 16.265 163.873 18.4849ZM161.832 13.6688H163.962V14.9578C164.535 14.0086 165.538 13.4541 166.827 13.4541C169.172 13.4541 170.963 15.4054 170.963 18.4849C170.963 21.5817 169.172 23.533 166.827 23.533C165.538 23.533 164.535 22.9786 163.962 22.0294V26.4335H161.832V13.6688Z" fill="white"/>
<path d="M157.762 19.1125V18.7717C154.718 19.0586 153.483 19.4879 153.483 20.5979C153.483 21.4392 154.181 21.9408 155.255 21.9408C156.83 21.9408 157.762 21.135 157.762 19.1125ZM155.738 13.3828C158.137 13.3828 159.892 14.4215 159.838 17.501C159.838 17.9843 159.803 19.1298 159.803 20.0078C159.803 21.2246 159.91 22.4962 160.089 23.3019H158.137C158.066 22.8899 157.994 22.5857 157.958 21.9234C157.367 22.9968 156.204 23.5339 154.789 23.5339C152.695 23.5339 151.227 22.4067 151.227 20.6518C151.227 18.2528 154.181 17.6445 157.708 17.2864V17.0534C157.708 15.4419 156.813 14.9587 155.631 14.9587C154.539 14.9587 153.715 15.5314 153.662 16.6953H151.567C151.71 14.7257 153.357 13.3828 155.738 13.3828Z" fill="white"/>
<path d="M143.58 10.3213V15.0123C144.134 14.0092 145.154 13.4537 146.497 13.4537C148.825 13.4537 149.774 14.9584 149.774 17.2495V23.3016H147.644V17.7693C147.644 16.462 147.447 15.1913 145.818 15.1913C144.188 15.1913 143.58 16.4437 143.58 18.1803V23.3016H141.449V10.3213H143.58Z" fill="white"/>
<path d="M134.96 17.715L133.385 17.4108C131.344 16.9987 129.643 15.9427 129.643 13.7402C129.643 11.3056 132.167 10.0879 134.549 10.0879C137.109 10.0879 139.114 11.2517 139.634 13.9548H137.431C137.055 12.3973 135.694 11.9496 134.424 11.9496C133.421 11.9496 131.934 12.3973 131.934 13.6689C131.934 14.6711 132.758 15.1726 133.868 15.3873L135.462 15.6915C137.735 16.1391 139.902 16.9631 139.902 19.5767C139.902 22.1913 137.306 23.5332 134.745 23.5332C131.666 23.5332 129.554 21.8505 129.285 19.0039H131.523C131.917 20.7762 133.063 21.6714 134.853 21.6714C136.392 21.6714 137.628 20.9735 137.628 19.7202C137.628 18.3955 136.196 17.9479 134.96 17.715Z" fill="white"/>
<mask id="mask0_615_138" style="mask-type:alpha" maskUnits="userSpaceOnUse" x="128" y="30" width="108" height="17">
<path d="M228.326 46.5352H227.358V44.9064H228.164C229.095 44.9064 229.49 44.8342 229.919 43.5808L230.027 43.3479L226.535 33.7695H228.863L231.047 40.6804L233.231 33.7695H235.416L232.032 43.3845C231.137 45.8729 230.492 46.5352 228.326 46.5352Z" fill="black"/>
<path d="M223.863 39.2111V38.8713C220.819 39.1572 219.584 39.5875 219.584 40.6975C219.584 41.5388 220.282 42.0404 221.356 42.0404C222.932 42.0404 223.863 41.2346 223.863 39.2111ZM221.839 33.4824C224.239 33.4824 225.993 34.5202 225.939 37.5997C225.939 38.0829 225.903 39.2294 225.903 40.1064C225.903 41.3242 226.011 42.5949 226.19 43.4006H224.239C224.167 42.9886 224.096 42.6844 224.06 42.0221C223.469 43.0964 222.305 43.6335 220.891 43.6335C218.796 43.6335 217.328 42.5053 217.328 40.7514C217.328 38.3515 220.282 37.7431 223.809 37.385V37.152C223.809 35.5415 222.913 35.0573 221.732 35.0573C220.64 35.0573 219.817 35.6301 219.763 36.7939H217.668C217.811 34.8253 219.458 33.4824 221.839 33.4824Z" fill="black"/>
<path d="M213.543 35.058V30.4209H215.674V43.4013H213.543V42.1306C212.971 43.0788 211.967 43.6342 210.678 43.6342C208.333 43.6342 206.543 41.6829 206.543 38.5851C206.543 35.5056 208.333 33.5543 210.678 33.5543C211.967 33.5543 212.971 34.1098 213.543 35.058ZM213.633 38.5851C213.633 36.3653 212.54 35.2909 211.144 35.2909C209.658 35.2909 208.763 36.5626 208.763 38.5851C208.763 40.6259 209.658 41.8976 211.144 41.8976C212.54 41.8976 213.633 40.805 213.633 38.5851Z" fill="black"/>
<path d="M200.839 41.898C202.254 41.898 203.328 40.8236 203.328 38.6038C203.328 36.3839 202.254 35.2913 200.839 35.2913C199.424 35.2913 198.351 36.3839 198.351 38.6038C198.351 40.8236 199.424 41.898 200.839 41.898ZM200.839 33.5547C203.257 33.5547 205.53 35.1305 205.53 38.6038C205.53 42.077 203.257 43.6346 200.839 43.6346C198.422 43.6346 196.148 42.077 196.148 38.6038C196.148 35.1305 198.422 33.5547 200.839 33.5547Z" fill="black"/>
<path d="M191.023 43.4013V32.3192H186.941V30.4209H197.379V32.3192H193.297V43.4013H191.023Z" fill="black"/>
<path d="M181.77 30.4209V43.4013H179.496V30.4209H181.77Z" fill="black"/>
<path d="M166.262 43.4013L171.095 30.4209H173.494L178.364 43.4013H175.876L174.855 40.5191H169.592L168.588 43.4013H166.262ZM172.205 33.0528L170.254 38.6207H174.175L172.205 33.0528Z" fill="black"/>
<path d="M155.29 30.4209V35.1119C155.846 34.1098 156.866 33.5543 158.209 33.5543C160.536 33.5543 161.485 35.058 161.485 37.35V43.4013H159.355V37.8689C159.355 36.5626 159.157 35.2909 157.529 35.2909C155.9 35.2909 155.29 36.5443 155.29 38.2809V43.4013H153.16V30.4209H155.29Z" fill="black"/>
<path d="M147.557 33.7689V31.2266H149.688V33.7689H151.622V35.3092H149.688V40.5546C149.688 41.5394 149.921 41.7724 150.834 41.7724H151.603V43.4012H150.029C147.969 43.4012 147.557 42.8467 147.557 40.8771V35.3092H146.125V33.7689H147.557Z" fill="black"/>
<path d="M142.895 30.4209H145.025V32.5695H142.895V30.4209ZM142.895 33.769H145.025V43.4013H142.895V33.769Z" fill="black"/>
<path d="M132.556 40.6092L134.203 33.7695H136.405L138.07 40.6092L139.485 33.7695H141.794L139.233 43.4018H137.211L135.313 36.2763L133.415 43.4018H131.392L128.832 33.7695H131.141L132.556 40.6092Z" fill="black"/>
</mask>
<g mask="url(#mask0_615_138)">
<path d="M236.938 25.9316H127.578V51.2401H236.938V25.9316Z" fill="url(#paint0_linear_615_138)"/>
</g>
<defs>
<linearGradient id="paint0_linear_615_138" x1="127.578" y1="38.5857" x2="236.939" y2="38.5857" gradientUnits="userSpaceOnUse">
<stop stop-color="#008BF7"/>
<stop offset="0.25" stop-color="#8458F8"/>
<stop offset="0.5" stop-color="#D9029C"/>
<stop offset="0.75" stop-color="#F40642"/>
<stop offset="1" stop-color="#F79D00"/>
</linearGradient>
</defs>
</svg>
